# xmcd CD database file
#
# Track frame offsets:
#	150
#	20676
#	39883
#	59477
#	73740
#	93581
#	111662
#	125927
#	146070
#	166446
#	187660
#	206239
#	226335
#	248505
#
# Disc length: 3602 seconds
#
# Revision: 0
# Processed by: cddbd v1.5.2PL0 Copyright (c) Steve Scherf et al.
# Submitted via: jetAudio 7
#
DISCID=d10e100e
DTITLE=鄭世傑  - 淸揚雙黃管 深呼吸
DYEAR=1900
DGENRE=장르 없음
TTITLE0=鄭世傑
TTITLE1=約定
TTITLE2=親愛的你怎麽不在我身邊
TTITLE3=情人
TTITLE4=不讓我的眼淚陪我過夜
TTITLE5=勇氣
TTITLE6=偏偏喜歡你
TTITLE7=我是不是你最疼愛的人
TTITLE8=無所謂
TTITLE9=原來你什麽都不要
TTITLE10=親密愛人
TTITLE11=親密愛人
TTITLE12=愛要有你才完美
TTITLE13=爱我
EXTD=
EXTT0=
EXTT1=
EXTT2=
EXTT3=
EXTT4=
EXTT5=
EXTT6=
EXTT7=
EXTT8=
EXTT9=
EXTT10=
EXTT11=
EXTT12=
EXTT13=
PLAYORDER=
